G04 #@! TF.GenerationSoftware,KiCad,Pcbnew,(6.0.1-0)*
G04 #@! TF.CreationDate,2022-02-14T15:17:06-08:00*
G04 #@! TF.ProjectId,lamp,6c616d70-2e6b-4696-9361-645f70636258,rev?*
G04 #@! TF.SameCoordinates,Original*
G04 #@! TF.FileFunction,Legend,Bot*
G04 #@! TF.FilePolarity,Positive*
%FSLAX46Y46*%
G04 Gerber Fmt 4.6, Leading zero omitted, Abs format (unit mm)*
G04 Created by KiCad (PCBNEW (6.0.1-0)) date 2022-02-14 15:17:06*
%MOMM*%
%LPD*%
G01*
G04 APERTURE LIST*
%ADD10C,0.150000*%
%ADD11C,0.120000*%
G04 APERTURE END LIST*
D10*
X153261904Y-60552380D02*
X152690476Y-60552380D01*
X152976190Y-61552380D02*
X152976190Y-60552380D01*
X152452380Y-60552380D02*
X151785714Y-61552380D01*
X151785714Y-60552380D02*
X152452380Y-61552380D01*
X161852380Y-119209523D02*
X161852380Y-118733333D01*
X162328571Y-118685714D01*
X162280952Y-118733333D01*
X162233333Y-118828571D01*
X162233333Y-119066666D01*
X162280952Y-119161904D01*
X162328571Y-119209523D01*
X162423809Y-119257142D01*
X162661904Y-119257142D01*
X162757142Y-119209523D01*
X162804761Y-119161904D01*
X162852380Y-119066666D01*
X162852380Y-118828571D01*
X162804761Y-118733333D01*
X162757142Y-118685714D01*
X161852380Y-119542857D02*
X162852380Y-119876190D01*
X161852380Y-120209523D01*
X144252380Y-119209523D02*
X144252380Y-118733333D01*
X144728571Y-118685714D01*
X144680952Y-118733333D01*
X144633333Y-118828571D01*
X144633333Y-119066666D01*
X144680952Y-119161904D01*
X144728571Y-119209523D01*
X144823809Y-119257142D01*
X145061904Y-119257142D01*
X145157142Y-119209523D01*
X145204761Y-119161904D01*
X145252380Y-119066666D01*
X145252380Y-118828571D01*
X145204761Y-118733333D01*
X145157142Y-118685714D01*
X144252380Y-119542857D02*
X145252380Y-119876190D01*
X144252380Y-120209523D01*
X148752380Y-118623809D02*
X147752380Y-118623809D01*
X147752380Y-119290476D02*
X147752380Y-119480952D01*
X147800000Y-119576190D01*
X147895238Y-119671428D01*
X148085714Y-119719047D01*
X148419047Y-119719047D01*
X148609523Y-119671428D01*
X148704761Y-119576190D01*
X148752380Y-119480952D01*
X148752380Y-119290476D01*
X148704761Y-119195238D01*
X148609523Y-119100000D01*
X148419047Y-119052380D01*
X148085714Y-119052380D01*
X147895238Y-119100000D01*
X147800000Y-119195238D01*
X147752380Y-119290476D01*
X148752380Y-120671428D02*
X148752380Y-120100000D01*
X148752380Y-120385714D02*
X147752380Y-120385714D01*
X147895238Y-120290476D01*
X147990476Y-120195238D01*
X148038095Y-120100000D01*
X148752380Y-121147619D02*
X148752380Y-121338095D01*
X148704761Y-121433333D01*
X148657142Y-121480952D01*
X148514285Y-121576190D01*
X148323809Y-121623809D01*
X147942857Y-121623809D01*
X147847619Y-121576190D01*
X147800000Y-121528571D01*
X147752380Y-121433333D01*
X147752380Y-121242857D01*
X147800000Y-121147619D01*
X147847619Y-121100000D01*
X147942857Y-121052380D01*
X148180952Y-121052380D01*
X148276190Y-121100000D01*
X148323809Y-121147619D01*
X148371428Y-121242857D01*
X148371428Y-121433333D01*
X148323809Y-121528571D01*
X148276190Y-121576190D01*
X148180952Y-121623809D01*
X154800000Y-119238095D02*
X154752380Y-119142857D01*
X154752380Y-119000000D01*
X154800000Y-118857142D01*
X154895238Y-118761904D01*
X154990476Y-118714285D01*
X155180952Y-118666666D01*
X155323809Y-118666666D01*
X155514285Y-118714285D01*
X155609523Y-118761904D01*
X155704761Y-118857142D01*
X155752380Y-119000000D01*
X155752380Y-119095238D01*
X155704761Y-119238095D01*
X155657142Y-119285714D01*
X155323809Y-119285714D01*
X155323809Y-119095238D01*
X155752380Y-119714285D02*
X154752380Y-119714285D01*
X155752380Y-120285714D01*
X154752380Y-120285714D01*
X155752380Y-120761904D02*
X154752380Y-120761904D01*
X154752380Y-121000000D01*
X154800000Y-121142857D01*
X154895238Y-121238095D01*
X154990476Y-121285714D01*
X155180952Y-121333333D01*
X155323809Y-121333333D01*
X155514285Y-121285714D01*
X155609523Y-121238095D01*
X155704761Y-121142857D01*
X155752380Y-121000000D01*
X155752380Y-120761904D01*
X159307142Y-119092857D02*
X159307142Y-118664285D01*
X158407142Y-118664285D01*
X158835714Y-119392857D02*
X158835714Y-119692857D01*
X159307142Y-119821428D02*
X159307142Y-119392857D01*
X158407142Y-119392857D01*
X158407142Y-119821428D01*
X159307142Y-120207142D02*
X158407142Y-120207142D01*
X158407142Y-120421428D01*
X158450000Y-120550000D01*
X158535714Y-120635714D01*
X158621428Y-120678571D01*
X158792857Y-120721428D01*
X158921428Y-120721428D01*
X159092857Y-120678571D01*
X159178571Y-120635714D01*
X159264285Y-120550000D01*
X159307142Y-120421428D01*
X159307142Y-120207142D01*
X158492857Y-121064285D02*
X158450000Y-121107142D01*
X158407142Y-121192857D01*
X158407142Y-121407142D01*
X158450000Y-121492857D01*
X158492857Y-121535714D01*
X158578571Y-121578571D01*
X158664285Y-121578571D01*
X158792857Y-121535714D01*
X159307142Y-121021428D01*
X159307142Y-121578571D01*
X152252380Y-118623809D02*
X151252380Y-118623809D01*
X151252380Y-119290476D02*
X151252380Y-119480952D01*
X151300000Y-119576190D01*
X151395238Y-119671428D01*
X151585714Y-119719047D01*
X151919047Y-119719047D01*
X152109523Y-119671428D01*
X152204761Y-119576190D01*
X152252380Y-119480952D01*
X152252380Y-119290476D01*
X152204761Y-119195238D01*
X152109523Y-119100000D01*
X151919047Y-119052380D01*
X151585714Y-119052380D01*
X151395238Y-119100000D01*
X151300000Y-119195238D01*
X151252380Y-119290476D01*
X151252380Y-120052380D02*
X151252380Y-120671428D01*
X151633333Y-120338095D01*
X151633333Y-120480952D01*
X151680952Y-120576190D01*
X151728571Y-120623809D01*
X151823809Y-120671428D01*
X152061904Y-120671428D01*
X152157142Y-120623809D01*
X152204761Y-120576190D01*
X152252380Y-120480952D01*
X152252380Y-120195238D01*
X152204761Y-120100000D01*
X152157142Y-120052380D01*
X151252380Y-121004761D02*
X151252380Y-121623809D01*
X151633333Y-121290476D01*
X151633333Y-121433333D01*
X151680952Y-121528571D01*
X151728571Y-121576190D01*
X151823809Y-121623809D01*
X152061904Y-121623809D01*
X152157142Y-121576190D01*
X152204761Y-121528571D01*
X152252380Y-121433333D01*
X152252380Y-121147619D01*
X152204761Y-121052380D01*
X152157142Y-121004761D01*
X141707142Y-119192857D02*
X141707142Y-118764285D01*
X140807142Y-118764285D01*
X141235714Y-119492857D02*
X141235714Y-119792857D01*
X141707142Y-119921428D02*
X141707142Y-119492857D01*
X140807142Y-119492857D01*
X140807142Y-119921428D01*
X141707142Y-120307142D02*
X140807142Y-120307142D01*
X140807142Y-120521428D01*
X140850000Y-120650000D01*
X140935714Y-120735714D01*
X141021428Y-120778571D01*
X141192857Y-120821428D01*
X141321428Y-120821428D01*
X141492857Y-120778571D01*
X141578571Y-120735714D01*
X141664285Y-120650000D01*
X141707142Y-120521428D01*
X141707142Y-120307142D01*
X141707142Y-121678571D02*
X141707142Y-121164285D01*
X141707142Y-121421428D02*
X140807142Y-121421428D01*
X140935714Y-121335714D01*
X141021428Y-121250000D01*
X141064285Y-121164285D01*
X137300000Y-119238095D02*
X137252380Y-119142857D01*
X137252380Y-119000000D01*
X137300000Y-118857142D01*
X137395238Y-118761904D01*
X137490476Y-118714285D01*
X137680952Y-118666666D01*
X137823809Y-118666666D01*
X138014285Y-118714285D01*
X138109523Y-118761904D01*
X138204761Y-118857142D01*
X138252380Y-119000000D01*
X138252380Y-119095238D01*
X138204761Y-119238095D01*
X138157142Y-119285714D01*
X137823809Y-119285714D01*
X137823809Y-119095238D01*
X138252380Y-119714285D02*
X137252380Y-119714285D01*
X138252380Y-120285714D01*
X137252380Y-120285714D01*
X138252380Y-120761904D02*
X137252380Y-120761904D01*
X137252380Y-121000000D01*
X137300000Y-121142857D01*
X137395238Y-121238095D01*
X137490476Y-121285714D01*
X137680952Y-121333333D01*
X137823809Y-121333333D01*
X138014285Y-121285714D01*
X138109523Y-121238095D01*
X138204761Y-121142857D01*
X138252380Y-121000000D01*
X138252380Y-120761904D01*
X155166666Y-61552380D02*
X155500000Y-61076190D01*
X155738095Y-61552380D02*
X155738095Y-60552380D01*
X155357142Y-60552380D01*
X155261904Y-60600000D01*
X155214285Y-60647619D01*
X155166666Y-60742857D01*
X155166666Y-60885714D01*
X155214285Y-60980952D01*
X155261904Y-61028571D01*
X155357142Y-61076190D01*
X155738095Y-61076190D01*
X154833333Y-60552380D02*
X154166666Y-61552380D01*
X154166666Y-60552380D02*
X154833333Y-61552380D01*
X150090476Y-60552380D02*
X150566666Y-60552380D01*
X150614285Y-61028571D01*
X150566666Y-60980952D01*
X150471428Y-60933333D01*
X150233333Y-60933333D01*
X150138095Y-60980952D01*
X150090476Y-61028571D01*
X150042857Y-61123809D01*
X150042857Y-61361904D01*
X150090476Y-61457142D01*
X150138095Y-61504761D01*
X150233333Y-61552380D01*
X150471428Y-61552380D01*
X150566666Y-61504761D01*
X150614285Y-61457142D01*
X149757142Y-60552380D02*
X149423809Y-61552380D01*
X149090476Y-60552380D01*
X163228571Y-103747380D02*
X163704761Y-103747380D01*
X163704761Y-102747380D01*
X162466666Y-103747380D02*
X162466666Y-103223571D01*
X162514285Y-103128333D01*
X162609523Y-103080714D01*
X162800000Y-103080714D01*
X162895238Y-103128333D01*
X162466666Y-103699761D02*
X162561904Y-103747380D01*
X162800000Y-103747380D01*
X162895238Y-103699761D01*
X162942857Y-103604523D01*
X162942857Y-103509285D01*
X162895238Y-103414047D01*
X162800000Y-103366428D01*
X162561904Y-103366428D01*
X162466666Y-103318809D01*
X161990476Y-103747380D02*
X161990476Y-103080714D01*
X161990476Y-103175952D02*
X161942857Y-103128333D01*
X161847619Y-103080714D01*
X161704761Y-103080714D01*
X161609523Y-103128333D01*
X161561904Y-103223571D01*
X161561904Y-103747380D01*
X161561904Y-103223571D02*
X161514285Y-103128333D01*
X161419047Y-103080714D01*
X161276190Y-103080714D01*
X161180952Y-103128333D01*
X161133333Y-103223571D01*
X161133333Y-103747380D01*
X160657142Y-103080714D02*
X160657142Y-104080714D01*
X160657142Y-103128333D02*
X160561904Y-103080714D01*
X160371428Y-103080714D01*
X160276190Y-103128333D01*
X160228571Y-103175952D01*
X160180952Y-103271190D01*
X160180952Y-103556904D01*
X160228571Y-103652142D01*
X160276190Y-103699761D01*
X160371428Y-103747380D01*
X160561904Y-103747380D01*
X160657142Y-103699761D01*
X158419047Y-103747380D02*
X158752380Y-103271190D01*
X158990476Y-103747380D02*
X158990476Y-102747380D01*
X158609523Y-102747380D01*
X158514285Y-102795000D01*
X158466666Y-102842619D01*
X158419047Y-102937857D01*
X158419047Y-103080714D01*
X158466666Y-103175952D01*
X158514285Y-103223571D01*
X158609523Y-103271190D01*
X158990476Y-103271190D01*
X157609523Y-103699761D02*
X157704761Y-103747380D01*
X157895238Y-103747380D01*
X157990476Y-103699761D01*
X158038095Y-103604523D01*
X158038095Y-103223571D01*
X157990476Y-103128333D01*
X157895238Y-103080714D01*
X157704761Y-103080714D01*
X157609523Y-103128333D01*
X157561904Y-103223571D01*
X157561904Y-103318809D01*
X158038095Y-103414047D01*
X157228571Y-103080714D02*
X156990476Y-103747380D01*
X156752380Y-103080714D01*
X156180952Y-102747380D02*
X156085714Y-102747380D01*
X155990476Y-102795000D01*
X155942857Y-102842619D01*
X155895238Y-102937857D01*
X155847619Y-103128333D01*
X155847619Y-103366428D01*
X155895238Y-103556904D01*
X155942857Y-103652142D01*
X155990476Y-103699761D01*
X156085714Y-103747380D01*
X156180952Y-103747380D01*
X156276190Y-103699761D01*
X156323809Y-103652142D01*
X156371428Y-103556904D01*
X156419047Y-103366428D01*
X156419047Y-103128333D01*
X156371428Y-102937857D01*
X156323809Y-102842619D01*
X156276190Y-102795000D01*
X156180952Y-102747380D01*
X161800000Y-104357380D02*
X161704761Y-104357380D01*
X161609523Y-104405000D01*
X161561904Y-104452619D01*
X161514285Y-104547857D01*
X161466666Y-104738333D01*
X161466666Y-104976428D01*
X161514285Y-105166904D01*
X161561904Y-105262142D01*
X161609523Y-105309761D01*
X161704761Y-105357380D01*
X161800000Y-105357380D01*
X161895238Y-105309761D01*
X161942857Y-105262142D01*
X161990476Y-105166904D01*
X162038095Y-104976428D01*
X162038095Y-104738333D01*
X161990476Y-104547857D01*
X161942857Y-104452619D01*
X161895238Y-104405000D01*
X161800000Y-104357380D01*
X161085714Y-104452619D02*
X161038095Y-104405000D01*
X160942857Y-104357380D01*
X160704761Y-104357380D01*
X160609523Y-104405000D01*
X160561904Y-104452619D01*
X160514285Y-104547857D01*
X160514285Y-104643095D01*
X160561904Y-104785952D01*
X161133333Y-105357380D01*
X160514285Y-105357380D01*
X159371428Y-104309761D02*
X160228571Y-105595476D01*
X159085714Y-104452619D02*
X159038095Y-104405000D01*
X158942857Y-104357380D01*
X158704761Y-104357380D01*
X158609523Y-104405000D01*
X158561904Y-104452619D01*
X158514285Y-104547857D01*
X158514285Y-104643095D01*
X158561904Y-104785952D01*
X159133333Y-105357380D01*
X158514285Y-105357380D01*
X158133333Y-104452619D02*
X158085714Y-104405000D01*
X157990476Y-104357380D01*
X157752380Y-104357380D01*
X157657142Y-104405000D01*
X157609523Y-104452619D01*
X157561904Y-104547857D01*
X157561904Y-104643095D01*
X157609523Y-104785952D01*
X158180952Y-105357380D01*
X157561904Y-105357380D01*
X158561904Y-60600000D02*
X158657142Y-60552380D01*
X158800000Y-60552380D01*
X158942857Y-60600000D01*
X159038095Y-60695238D01*
X159085714Y-60790476D01*
X159133333Y-60980952D01*
X159133333Y-61123809D01*
X159085714Y-61314285D01*
X159038095Y-61409523D01*
X158942857Y-61504761D01*
X158800000Y-61552380D01*
X158704761Y-61552380D01*
X158561904Y-61504761D01*
X158514285Y-61457142D01*
X158514285Y-61123809D01*
X158704761Y-61123809D01*
X158085714Y-61552380D02*
X158085714Y-60552380D01*
X157514285Y-61552380D01*
X157514285Y-60552380D01*
X157038095Y-61552380D02*
X157038095Y-60552380D01*
X156800000Y-60552380D01*
X156657142Y-60600000D01*
X156561904Y-60695238D01*
X156514285Y-60790476D01*
X156466666Y-60980952D01*
X156466666Y-61123809D01*
X156514285Y-61314285D01*
X156561904Y-61409523D01*
X156657142Y-61504761D01*
X156800000Y-61552380D01*
X157038095Y-61552380D01*
G04 #@! TO.C,C2*
X156166666Y-95357142D02*
X156214285Y-95404761D01*
X156357142Y-95452380D01*
X156452380Y-95452380D01*
X156595238Y-95404761D01*
X156690476Y-95309523D01*
X156738095Y-95214285D01*
X156785714Y-95023809D01*
X156785714Y-94880952D01*
X156738095Y-94690476D01*
X156690476Y-94595238D01*
X156595238Y-94500000D01*
X156452380Y-94452380D01*
X156357142Y-94452380D01*
X156214285Y-94500000D01*
X156166666Y-94547619D01*
X155785714Y-94547619D02*
X155738095Y-94500000D01*
X155642857Y-94452380D01*
X155404761Y-94452380D01*
X155309523Y-94500000D01*
X155261904Y-94547619D01*
X155214285Y-94642857D01*
X155214285Y-94738095D01*
X155261904Y-94880952D01*
X155833333Y-95452380D01*
X155214285Y-95452380D01*
G04 #@! TO.C,SW1*
X151351708Y-114150123D02*
X151208851Y-114197742D01*
X150970755Y-114197742D01*
X150875517Y-114150123D01*
X150827898Y-114102504D01*
X150780279Y-114007266D01*
X150780279Y-113912028D01*
X150827898Y-113816790D01*
X150875517Y-113769171D01*
X150970755Y-113721552D01*
X151161232Y-113673933D01*
X151256470Y-113626314D01*
X151304089Y-113578695D01*
X151351708Y-113483457D01*
X151351708Y-113388219D01*
X151304089Y-113292981D01*
X151256470Y-113245362D01*
X151161232Y-113197742D01*
X150923136Y-113197742D01*
X150780279Y-113245362D01*
X150446946Y-113197742D02*
X150208851Y-114197742D01*
X150018375Y-113483457D01*
X149827898Y-114197742D01*
X149589803Y-113197742D01*
X148685041Y-114197742D02*
X149256470Y-114197742D01*
X148970755Y-114197742D02*
X148970755Y-113197742D01*
X149065994Y-113340600D01*
X149161232Y-113435838D01*
X149256470Y-113483457D01*
G04 #@! TO.C,U17*
X143052380Y-83961904D02*
X143861904Y-83961904D01*
X143957142Y-84009523D01*
X144004761Y-84057142D01*
X144052380Y-84152380D01*
X144052380Y-84342857D01*
X144004761Y-84438095D01*
X143957142Y-84485714D01*
X143861904Y-84533333D01*
X143052380Y-84533333D01*
X144052380Y-85533333D02*
X144052380Y-84961904D01*
X144052380Y-85247619D02*
X143052380Y-85247619D01*
X143195238Y-85152380D01*
X143290476Y-85057142D01*
X143338095Y-84961904D01*
X143052380Y-85866666D02*
X143052380Y-86533333D01*
X144052380Y-86104761D01*
G04 #@! TO.C,C9*
X162566666Y-113457142D02*
X162614285Y-113504761D01*
X162757142Y-113552380D01*
X162852380Y-113552380D01*
X162995238Y-113504761D01*
X163090476Y-113409523D01*
X163138095Y-113314285D01*
X163185714Y-113123809D01*
X163185714Y-112980952D01*
X163138095Y-112790476D01*
X163090476Y-112695238D01*
X162995238Y-112600000D01*
X162852380Y-112552380D01*
X162757142Y-112552380D01*
X162614285Y-112600000D01*
X162566666Y-112647619D01*
X162090476Y-113552380D02*
X161900000Y-113552380D01*
X161804761Y-113504761D01*
X161757142Y-113457142D01*
X161661904Y-113314285D01*
X161614285Y-113123809D01*
X161614285Y-112742857D01*
X161661904Y-112647619D01*
X161709523Y-112600000D01*
X161804761Y-112552380D01*
X161995238Y-112552380D01*
X162090476Y-112600000D01*
X162138095Y-112647619D01*
X162185714Y-112742857D01*
X162185714Y-112980952D01*
X162138095Y-113076190D01*
X162090476Y-113123809D01*
X161995238Y-113171428D01*
X161804761Y-113171428D01*
X161709523Y-113123809D01*
X161661904Y-113076190D01*
X161614285Y-112980952D01*
G04 #@! TO.C,J4*
X162893333Y-94632380D02*
X162893333Y-95346666D01*
X162940952Y-95489523D01*
X163036190Y-95584761D01*
X163179047Y-95632380D01*
X163274285Y-95632380D01*
X161988571Y-94965714D02*
X161988571Y-95632380D01*
X162226666Y-94584761D02*
X162464761Y-95299047D01*
X161845714Y-95299047D01*
G04 #@! TO.C,C6*
X151480341Y-86833333D02*
X151527960Y-86785714D01*
X151575579Y-86642857D01*
X151575579Y-86547619D01*
X151527960Y-86404761D01*
X151432722Y-86309523D01*
X151337484Y-86261904D01*
X151147008Y-86214285D01*
X151004151Y-86214285D01*
X150813675Y-86261904D01*
X150718437Y-86309523D01*
X150623199Y-86404761D01*
X150575579Y-86547619D01*
X150575579Y-86642857D01*
X150623199Y-86785714D01*
X150670818Y-86833333D01*
X150575579Y-87690476D02*
X150575579Y-87500000D01*
X150623199Y-87404761D01*
X150670818Y-87357142D01*
X150813675Y-87261904D01*
X151004151Y-87214285D01*
X151385103Y-87214285D01*
X151480341Y-87261904D01*
X151527960Y-87309523D01*
X151575579Y-87404761D01*
X151575579Y-87595238D01*
X151527960Y-87690476D01*
X151480341Y-87738095D01*
X151385103Y-87785714D01*
X151147008Y-87785714D01*
X151051770Y-87738095D01*
X151004151Y-87690476D01*
X150956532Y-87595238D01*
X150956532Y-87404761D01*
X151004151Y-87309523D01*
X151051770Y-87261904D01*
X151147008Y-87214285D01*
G04 #@! TO.C,R1*
X156166666Y-84552380D02*
X156500000Y-84076190D01*
X156738095Y-84552380D02*
X156738095Y-83552380D01*
X156357142Y-83552380D01*
X156261904Y-83600000D01*
X156214285Y-83647619D01*
X156166666Y-83742857D01*
X156166666Y-83885714D01*
X156214285Y-83980952D01*
X156261904Y-84028571D01*
X156357142Y-84076190D01*
X156738095Y-84076190D01*
X155214285Y-84552380D02*
X155785714Y-84552380D01*
X155500000Y-84552380D02*
X155500000Y-83552380D01*
X155595238Y-83695238D01*
X155690476Y-83790476D01*
X155785714Y-83838095D01*
G04 #@! TO.C,C25*
X146942857Y-94957142D02*
X146990476Y-95004761D01*
X147133333Y-95052380D01*
X147228571Y-95052380D01*
X147371428Y-95004761D01*
X147466666Y-94909523D01*
X147514285Y-94814285D01*
X147561904Y-94623809D01*
X147561904Y-94480952D01*
X147514285Y-94290476D01*
X147466666Y-94195238D01*
X147371428Y-94100000D01*
X147228571Y-94052380D01*
X147133333Y-94052380D01*
X146990476Y-94100000D01*
X146942857Y-94147619D01*
X146561904Y-94147619D02*
X146514285Y-94100000D01*
X146419047Y-94052380D01*
X146180952Y-94052380D01*
X146085714Y-94100000D01*
X146038095Y-94147619D01*
X145990476Y-94242857D01*
X145990476Y-94338095D01*
X146038095Y-94480952D01*
X146609523Y-95052380D01*
X145990476Y-95052380D01*
X145085714Y-94052380D02*
X145561904Y-94052380D01*
X145609523Y-94528571D01*
X145561904Y-94480952D01*
X145466666Y-94433333D01*
X145228571Y-94433333D01*
X145133333Y-94480952D01*
X145085714Y-94528571D01*
X145038095Y-94623809D01*
X145038095Y-94861904D01*
X145085714Y-94957142D01*
X145133333Y-95004761D01*
X145228571Y-95052380D01*
X145466666Y-95052380D01*
X145561904Y-95004761D01*
X145609523Y-94957142D01*
G04 #@! TO.C,C3*
X159166666Y-95357142D02*
X159214285Y-95404761D01*
X159357142Y-95452380D01*
X159452380Y-95452380D01*
X159595238Y-95404761D01*
X159690476Y-95309523D01*
X159738095Y-95214285D01*
X159785714Y-95023809D01*
X159785714Y-94880952D01*
X159738095Y-94690476D01*
X159690476Y-94595238D01*
X159595238Y-94500000D01*
X159452380Y-94452380D01*
X159357142Y-94452380D01*
X159214285Y-94500000D01*
X159166666Y-94547619D01*
X158833333Y-94452380D02*
X158214285Y-94452380D01*
X158547619Y-94833333D01*
X158404761Y-94833333D01*
X158309523Y-94880952D01*
X158261904Y-94928571D01*
X158214285Y-95023809D01*
X158214285Y-95261904D01*
X158261904Y-95357142D01*
X158309523Y-95404761D01*
X158404761Y-95452380D01*
X158690476Y-95452380D01*
X158785714Y-95404761D01*
X158833333Y-95357142D01*
G04 #@! TO.C,C1*
X159166666Y-84357142D02*
X159214285Y-84404761D01*
X159357142Y-84452380D01*
X159452380Y-84452380D01*
X159595238Y-84404761D01*
X159690476Y-84309523D01*
X159738095Y-84214285D01*
X159785714Y-84023809D01*
X159785714Y-83880952D01*
X159738095Y-83690476D01*
X159690476Y-83595238D01*
X159595238Y-83500000D01*
X159452380Y-83452380D01*
X159357142Y-83452380D01*
X159214285Y-83500000D01*
X159166666Y-83547619D01*
X158214285Y-84452380D02*
X158785714Y-84452380D01*
X158500000Y-84452380D02*
X158500000Y-83452380D01*
X158595238Y-83595238D01*
X158690476Y-83690476D01*
X158785714Y-83738095D01*
G04 #@! TO.C,R14*
X158265317Y-113541496D02*
X158598650Y-113065306D01*
X158836745Y-113541496D02*
X158836745Y-112541496D01*
X158455793Y-112541496D01*
X158360555Y-112589116D01*
X158312936Y-112636735D01*
X158265317Y-112731973D01*
X158265317Y-112874830D01*
X158312936Y-112970068D01*
X158360555Y-113017687D01*
X158455793Y-113065306D01*
X158836745Y-113065306D01*
X157312936Y-113541496D02*
X157884364Y-113541496D01*
X157598650Y-113541496D02*
X157598650Y-112541496D01*
X157693888Y-112684354D01*
X157789126Y-112779592D01*
X157884364Y-112827211D01*
X156455793Y-112874830D02*
X156455793Y-113541496D01*
X156693888Y-112493877D02*
X156931983Y-113208163D01*
X156312936Y-113208163D01*
G04 #@! TO.C,R2*
X150537080Y-69069725D02*
X150060890Y-68736392D01*
X150537080Y-68498296D02*
X149537080Y-68498296D01*
X149537080Y-68879249D01*
X149584700Y-68974487D01*
X149632319Y-69022106D01*
X149727557Y-69069725D01*
X149870414Y-69069725D01*
X149965652Y-69022106D01*
X150013271Y-68974487D01*
X150060890Y-68879249D01*
X150060890Y-68498296D01*
X149632319Y-69450677D02*
X149584700Y-69498296D01*
X149537080Y-69593534D01*
X149537080Y-69831630D01*
X149584700Y-69926868D01*
X149632319Y-69974487D01*
X149727557Y-70022106D01*
X149822795Y-70022106D01*
X149965652Y-69974487D01*
X150537080Y-69403058D01*
X150537080Y-70022106D01*
G04 #@! TO.C,J2*
X159322380Y-58666666D02*
X160036666Y-58666666D01*
X160179523Y-58619047D01*
X160274761Y-58523809D01*
X160322380Y-58380952D01*
X160322380Y-58285714D01*
X159417619Y-59095238D02*
X159370000Y-59142857D01*
X159322380Y-59238095D01*
X159322380Y-59476190D01*
X159370000Y-59571428D01*
X159417619Y-59619047D01*
X159512857Y-59666666D01*
X159608095Y-59666666D01*
X159750952Y-59619047D01*
X160322380Y-59047619D01*
X160322380Y-59666666D01*
G04 #@! TO.C,R6*
X149452380Y-47833333D02*
X148976190Y-47500000D01*
X149452380Y-47261904D02*
X148452380Y-47261904D01*
X148452380Y-47642857D01*
X148500000Y-47738095D01*
X148547619Y-47785714D01*
X148642857Y-47833333D01*
X148785714Y-47833333D01*
X148880952Y-47785714D01*
X148928571Y-47738095D01*
X148976190Y-47642857D01*
X148976190Y-47261904D01*
X148452380Y-48690476D02*
X148452380Y-48500000D01*
X148500000Y-48404761D01*
X148547619Y-48357142D01*
X148690476Y-48261904D01*
X148880952Y-48214285D01*
X149261904Y-48214285D01*
X149357142Y-48261904D01*
X149404761Y-48309523D01*
X149452380Y-48404761D01*
X149452380Y-48595238D01*
X149404761Y-48690476D01*
X149357142Y-48738095D01*
X149261904Y-48785714D01*
X149023809Y-48785714D01*
X148928571Y-48738095D01*
X148880952Y-48690476D01*
X148833333Y-48595238D01*
X148833333Y-48404761D01*
X148880952Y-48309523D01*
X148928571Y-48261904D01*
X149023809Y-48214285D01*
G04 #@! TO.C,C8*
X140146440Y-113457142D02*
X140194059Y-113504761D01*
X140336916Y-113552380D01*
X140432154Y-113552380D01*
X140575012Y-113504761D01*
X140670250Y-113409523D01*
X140717869Y-113314285D01*
X140765488Y-113123809D01*
X140765488Y-112980952D01*
X140717869Y-112790476D01*
X140670250Y-112695238D01*
X140575012Y-112600000D01*
X140432154Y-112552380D01*
X140336916Y-112552380D01*
X140194059Y-112600000D01*
X140146440Y-112647619D01*
X139575012Y-112980952D02*
X139670250Y-112933333D01*
X139717869Y-112885714D01*
X139765488Y-112790476D01*
X139765488Y-112742857D01*
X139717869Y-112647619D01*
X139670250Y-112600000D01*
X139575012Y-112552380D01*
X139384535Y-112552380D01*
X139289297Y-112600000D01*
X139241678Y-112647619D01*
X139194059Y-112742857D01*
X139194059Y-112790476D01*
X139241678Y-112885714D01*
X139289297Y-112933333D01*
X139384535Y-112980952D01*
X139575012Y-112980952D01*
X139670250Y-113028571D01*
X139717869Y-113076190D01*
X139765488Y-113171428D01*
X139765488Y-113361904D01*
X139717869Y-113457142D01*
X139670250Y-113504761D01*
X139575012Y-113552380D01*
X139384535Y-113552380D01*
X139289297Y-113504761D01*
X139241678Y-113457142D01*
X139194059Y-113361904D01*
X139194059Y-113171428D01*
X139241678Y-113076190D01*
X139289297Y-113028571D01*
X139384535Y-112980952D01*
G04 #@! TO.C,C7*
X140357142Y-57733333D02*
X140404761Y-57685714D01*
X140452380Y-57542857D01*
X140452380Y-57447619D01*
X140404761Y-57304761D01*
X140309523Y-57209523D01*
X140214285Y-57161904D01*
X140023809Y-57114285D01*
X139880952Y-57114285D01*
X139690476Y-57161904D01*
X139595238Y-57209523D01*
X139500000Y-57304761D01*
X139452380Y-57447619D01*
X139452380Y-57542857D01*
X139500000Y-57685714D01*
X139547619Y-57733333D01*
X139452380Y-58066666D02*
X139452380Y-58733333D01*
X140452380Y-58304761D01*
G04 #@! TO.C,Q2*
X152147619Y-51604761D02*
X152100000Y-51509523D01*
X152004761Y-51414285D01*
X151861904Y-51271428D01*
X151814285Y-51176190D01*
X151814285Y-51080952D01*
X152052380Y-51128571D02*
X152004761Y-51033333D01*
X151909523Y-50938095D01*
X151719047Y-50890476D01*
X151385714Y-50890476D01*
X151195238Y-50938095D01*
X151100000Y-51033333D01*
X151052380Y-51128571D01*
X151052380Y-51319047D01*
X151100000Y-51414285D01*
X151195238Y-51509523D01*
X151385714Y-51557142D01*
X151719047Y-51557142D01*
X151909523Y-51509523D01*
X152004761Y-51414285D01*
X152052380Y-51319047D01*
X152052380Y-51128571D01*
X151147619Y-51938095D02*
X151100000Y-51985714D01*
X151052380Y-52080952D01*
X151052380Y-52319047D01*
X151100000Y-52414285D01*
X151147619Y-52461904D01*
X151242857Y-52509523D01*
X151338095Y-52509523D01*
X151480952Y-52461904D01*
X152052380Y-51890476D01*
X152052380Y-52509523D01*
G04 #@! TO.C,U2*
X143842380Y-65238095D02*
X144651904Y-65238095D01*
X144747142Y-65285714D01*
X144794761Y-65333333D01*
X144842380Y-65428571D01*
X144842380Y-65619047D01*
X144794761Y-65714285D01*
X144747142Y-65761904D01*
X144651904Y-65809523D01*
X143842380Y-65809523D01*
X143937619Y-66238095D02*
X143890000Y-66285714D01*
X143842380Y-66380952D01*
X143842380Y-66619047D01*
X143890000Y-66714285D01*
X143937619Y-66761904D01*
X144032857Y-66809523D01*
X144128095Y-66809523D01*
X144270952Y-66761904D01*
X144842380Y-66190476D01*
X144842380Y-66809523D01*
G04 #@! TO.C,R26*
X153452380Y-78757142D02*
X152976190Y-78423809D01*
X153452380Y-78185714D02*
X152452380Y-78185714D01*
X152452380Y-78566666D01*
X152500000Y-78661904D01*
X152547619Y-78709523D01*
X152642857Y-78757142D01*
X152785714Y-78757142D01*
X152880952Y-78709523D01*
X152928571Y-78661904D01*
X152976190Y-78566666D01*
X152976190Y-78185714D01*
X152547619Y-79138095D02*
X152500000Y-79185714D01*
X152452380Y-79280952D01*
X152452380Y-79519047D01*
X152500000Y-79614285D01*
X152547619Y-79661904D01*
X152642857Y-79709523D01*
X152738095Y-79709523D01*
X152880952Y-79661904D01*
X153452380Y-79090476D01*
X153452380Y-79709523D01*
X152452380Y-80566666D02*
X152452380Y-80376190D01*
X152500000Y-80280952D01*
X152547619Y-80233333D01*
X152690476Y-80138095D01*
X152880952Y-80090476D01*
X153261904Y-80090476D01*
X153357142Y-80138095D01*
X153404761Y-80185714D01*
X153452380Y-80280952D01*
X153452380Y-80471428D01*
X153404761Y-80566666D01*
X153357142Y-80614285D01*
X153261904Y-80661904D01*
X153023809Y-80661904D01*
X152928571Y-80614285D01*
X152880952Y-80566666D01*
X152833333Y-80471428D01*
X152833333Y-80280952D01*
X152880952Y-80185714D01*
X152928571Y-80138095D01*
X153023809Y-80090476D01*
G04 #@! TO.C,C5*
X140257142Y-60633333D02*
X140304761Y-60585714D01*
X140352380Y-60442857D01*
X140352380Y-60347619D01*
X140304761Y-60204761D01*
X140209523Y-60109523D01*
X140114285Y-60061904D01*
X139923809Y-60014285D01*
X139780952Y-60014285D01*
X139590476Y-60061904D01*
X139495238Y-60109523D01*
X139400000Y-60204761D01*
X139352380Y-60347619D01*
X139352380Y-60442857D01*
X139400000Y-60585714D01*
X139447619Y-60633333D01*
X139352380Y-61538095D02*
X139352380Y-61061904D01*
X139828571Y-61014285D01*
X139780952Y-61061904D01*
X139733333Y-61157142D01*
X139733333Y-61395238D01*
X139780952Y-61490476D01*
X139828571Y-61538095D01*
X139923809Y-61585714D01*
X140161904Y-61585714D01*
X140257142Y-61538095D01*
X140304761Y-61490476D01*
X140352380Y-61395238D01*
X140352380Y-61157142D01*
X140304761Y-61061904D01*
X140257142Y-61014285D01*
G04 #@! TO.C,R7*
X157452380Y-47833333D02*
X156976190Y-47500000D01*
X157452380Y-47261904D02*
X156452380Y-47261904D01*
X156452380Y-47642857D01*
X156500000Y-47738095D01*
X156547619Y-47785714D01*
X156642857Y-47833333D01*
X156785714Y-47833333D01*
X156880952Y-47785714D01*
X156928571Y-47738095D01*
X156976190Y-47642857D01*
X156976190Y-47261904D01*
X156452380Y-48166666D02*
X156452380Y-48833333D01*
X157452380Y-48404761D01*
G04 #@! TO.C,R8*
X141752380Y-51733333D02*
X141276190Y-51400000D01*
X141752380Y-51161904D02*
X140752380Y-51161904D01*
X140752380Y-51542857D01*
X140800000Y-51638095D01*
X140847619Y-51685714D01*
X140942857Y-51733333D01*
X141085714Y-51733333D01*
X141180952Y-51685714D01*
X141228571Y-51638095D01*
X141276190Y-51542857D01*
X141276190Y-51161904D01*
X141180952Y-52304761D02*
X141133333Y-52209523D01*
X141085714Y-52161904D01*
X140990476Y-52114285D01*
X140942857Y-52114285D01*
X140847619Y-52161904D01*
X140800000Y-52209523D01*
X140752380Y-52304761D01*
X140752380Y-52495238D01*
X140800000Y-52590476D01*
X140847619Y-52638095D01*
X140942857Y-52685714D01*
X140990476Y-52685714D01*
X141085714Y-52638095D01*
X141133333Y-52590476D01*
X141180952Y-52495238D01*
X141180952Y-52304761D01*
X141228571Y-52209523D01*
X141276190Y-52161904D01*
X141371428Y-52114285D01*
X141561904Y-52114285D01*
X141657142Y-52161904D01*
X141704761Y-52209523D01*
X141752380Y-52304761D01*
X141752380Y-52495238D01*
X141704761Y-52590476D01*
X141657142Y-52638095D01*
X141561904Y-52685714D01*
X141371428Y-52685714D01*
X141276190Y-52638095D01*
X141228571Y-52590476D01*
X141180952Y-52495238D01*
G04 #@! TO.C,R25*
X148742857Y-76652380D02*
X149076190Y-76176190D01*
X149314285Y-76652380D02*
X149314285Y-75652380D01*
X148933333Y-75652380D01*
X148838095Y-75700000D01*
X148790476Y-75747619D01*
X148742857Y-75842857D01*
X148742857Y-75985714D01*
X148790476Y-76080952D01*
X148838095Y-76128571D01*
X148933333Y-76176190D01*
X149314285Y-76176190D01*
X148361904Y-75747619D02*
X148314285Y-75700000D01*
X148219047Y-75652380D01*
X147980952Y-75652380D01*
X147885714Y-75700000D01*
X147838095Y-75747619D01*
X147790476Y-75842857D01*
X147790476Y-75938095D01*
X147838095Y-76080952D01*
X148409523Y-76652380D01*
X147790476Y-76652380D01*
X146885714Y-75652380D02*
X147361904Y-75652380D01*
X147409523Y-76128571D01*
X147361904Y-76080952D01*
X147266666Y-76033333D01*
X147028571Y-76033333D01*
X146933333Y-76080952D01*
X146885714Y-76128571D01*
X146838095Y-76223809D01*
X146838095Y-76461904D01*
X146885714Y-76557142D01*
X146933333Y-76604761D01*
X147028571Y-76652380D01*
X147266666Y-76652380D01*
X147361904Y-76604761D01*
X147409523Y-76557142D01*
G04 #@! TO.C,R9*
X159522380Y-51833333D02*
X159046190Y-51500000D01*
X159522380Y-51261904D02*
X158522380Y-51261904D01*
X158522380Y-51642857D01*
X158570000Y-51738095D01*
X158617619Y-51785714D01*
X158712857Y-51833333D01*
X158855714Y-51833333D01*
X158950952Y-51785714D01*
X158998571Y-51738095D01*
X159046190Y-51642857D01*
X159046190Y-51261904D01*
X159522380Y-52309523D02*
X159522380Y-52500000D01*
X159474761Y-52595238D01*
X159427142Y-52642857D01*
X159284285Y-52738095D01*
X159093809Y-52785714D01*
X158712857Y-52785714D01*
X158617619Y-52738095D01*
X158570000Y-52690476D01*
X158522380Y-52595238D01*
X158522380Y-52404761D01*
X158570000Y-52309523D01*
X158617619Y-52261904D01*
X158712857Y-52214285D01*
X158950952Y-52214285D01*
X159046190Y-52261904D01*
X159093809Y-52309523D01*
X159141428Y-52404761D01*
X159141428Y-52595238D01*
X159093809Y-52690476D01*
X159046190Y-52738095D01*
X158950952Y-52785714D01*
G04 #@! TO.C,Q1*
X148947619Y-51442261D02*
X148900000Y-51347023D01*
X148804761Y-51251785D01*
X148661904Y-51108928D01*
X148614285Y-51013690D01*
X148614285Y-50918452D01*
X148852380Y-50966071D02*
X148804761Y-50870833D01*
X148709523Y-50775595D01*
X148519047Y-50727976D01*
X148185714Y-50727976D01*
X147995238Y-50775595D01*
X147900000Y-50870833D01*
X147852380Y-50966071D01*
X147852380Y-51156547D01*
X147900000Y-51251785D01*
X147995238Y-51347023D01*
X148185714Y-51394642D01*
X148519047Y-51394642D01*
X148709523Y-51347023D01*
X148804761Y-51251785D01*
X148852380Y-51156547D01*
X148852380Y-50966071D01*
X148852380Y-52347023D02*
X148852380Y-51775595D01*
X148852380Y-52061309D02*
X147852380Y-52061309D01*
X147995238Y-51966071D01*
X148090476Y-51870833D01*
X148138095Y-51775595D01*
G04 #@! TO.C,D1*
X150632380Y-63644404D02*
X149632380Y-63644404D01*
X149632380Y-63882500D01*
X149680000Y-64025357D01*
X149775238Y-64120595D01*
X149870476Y-64168214D01*
X150060952Y-64215833D01*
X150203809Y-64215833D01*
X150394285Y-64168214D01*
X150489523Y-64120595D01*
X150584761Y-64025357D01*
X150632380Y-63882500D01*
X150632380Y-63644404D01*
X150632380Y-65168214D02*
X150632380Y-64596785D01*
X150632380Y-64882500D02*
X149632380Y-64882500D01*
X149775238Y-64787261D01*
X149870476Y-64692023D01*
X149918095Y-64596785D01*
G04 #@! TO.C,C4*
X143082084Y-73357142D02*
X143129703Y-73404761D01*
X143272560Y-73452380D01*
X143367798Y-73452380D01*
X143510656Y-73404761D01*
X143605894Y-73309523D01*
X143653513Y-73214285D01*
X143701132Y-73023809D01*
X143701132Y-72880952D01*
X143653513Y-72690476D01*
X143605894Y-72595238D01*
X143510656Y-72500000D01*
X143367798Y-72452380D01*
X143272560Y-72452380D01*
X143129703Y-72500000D01*
X143082084Y-72547619D01*
X142224941Y-72785714D02*
X142224941Y-73452380D01*
X142463037Y-72404761D02*
X142701132Y-73119047D01*
X142082084Y-73119047D01*
G04 #@! TO.C,C23*
X139757142Y-85457142D02*
X139804761Y-85409523D01*
X139852380Y-85266666D01*
X139852380Y-85171428D01*
X139804761Y-85028571D01*
X139709523Y-84933333D01*
X139614285Y-84885714D01*
X139423809Y-84838095D01*
X139280952Y-84838095D01*
X139090476Y-84885714D01*
X138995238Y-84933333D01*
X138900000Y-85028571D01*
X138852380Y-85171428D01*
X138852380Y-85266666D01*
X138900000Y-85409523D01*
X138947619Y-85457142D01*
X138947619Y-85838095D02*
X138900000Y-85885714D01*
X138852380Y-85980952D01*
X138852380Y-86219047D01*
X138900000Y-86314285D01*
X138947619Y-86361904D01*
X139042857Y-86409523D01*
X139138095Y-86409523D01*
X139280952Y-86361904D01*
X139852380Y-85790476D01*
X139852380Y-86409523D01*
X138852380Y-86742857D02*
X138852380Y-87361904D01*
X139233333Y-87028571D01*
X139233333Y-87171428D01*
X139280952Y-87266666D01*
X139328571Y-87314285D01*
X139423809Y-87361904D01*
X139661904Y-87361904D01*
X139757142Y-87314285D01*
X139804761Y-87266666D01*
X139852380Y-87171428D01*
X139852380Y-86885714D01*
X139804761Y-86790476D01*
X139757142Y-86742857D01*
G04 #@! TO.C,R27*
X142032380Y-90802142D02*
X141556190Y-90468809D01*
X142032380Y-90230714D02*
X141032380Y-90230714D01*
X141032380Y-90611666D01*
X141080000Y-90706904D01*
X141127619Y-90754523D01*
X141222857Y-90802142D01*
X141365714Y-90802142D01*
X141460952Y-90754523D01*
X141508571Y-90706904D01*
X141556190Y-90611666D01*
X141556190Y-90230714D01*
X141127619Y-91183095D02*
X141080000Y-91230714D01*
X141032380Y-91325952D01*
X141032380Y-91564047D01*
X141080000Y-91659285D01*
X141127619Y-91706904D01*
X141222857Y-91754523D01*
X141318095Y-91754523D01*
X141460952Y-91706904D01*
X142032380Y-91135476D01*
X142032380Y-91754523D01*
X141032380Y-92087857D02*
X141032380Y-92754523D01*
X142032380Y-92325952D01*
G04 #@! TO.C,R5*
X151552380Y-55333333D02*
X151076190Y-55000000D01*
X151552380Y-54761904D02*
X150552380Y-54761904D01*
X150552380Y-55142857D01*
X150600000Y-55238095D01*
X150647619Y-55285714D01*
X150742857Y-55333333D01*
X150885714Y-55333333D01*
X150980952Y-55285714D01*
X151028571Y-55238095D01*
X151076190Y-55142857D01*
X151076190Y-54761904D01*
X150552380Y-56238095D02*
X150552380Y-55761904D01*
X151028571Y-55714285D01*
X150980952Y-55761904D01*
X150933333Y-55857142D01*
X150933333Y-56095238D01*
X150980952Y-56190476D01*
X151028571Y-56238095D01*
X151123809Y-56285714D01*
X151361904Y-56285714D01*
X151457142Y-56238095D01*
X151504761Y-56190476D01*
X151552380Y-56095238D01*
X151552380Y-55857142D01*
X151504761Y-55761904D01*
X151457142Y-55714285D01*
G04 #@! TO.C,C24*
X151607142Y-90802142D02*
X151654761Y-90754523D01*
X151702380Y-90611666D01*
X151702380Y-90516428D01*
X151654761Y-90373571D01*
X151559523Y-90278333D01*
X151464285Y-90230714D01*
X151273809Y-90183095D01*
X151130952Y-90183095D01*
X150940476Y-90230714D01*
X150845238Y-90278333D01*
X150750000Y-90373571D01*
X150702380Y-90516428D01*
X150702380Y-90611666D01*
X150750000Y-90754523D01*
X150797619Y-90802142D01*
X150797619Y-91183095D02*
X150750000Y-91230714D01*
X150702380Y-91325952D01*
X150702380Y-91564047D01*
X150750000Y-91659285D01*
X150797619Y-91706904D01*
X150892857Y-91754523D01*
X150988095Y-91754523D01*
X151130952Y-91706904D01*
X151702380Y-91135476D01*
X151702380Y-91754523D01*
X151035714Y-92611666D02*
X151702380Y-92611666D01*
X150654761Y-92373571D02*
X151369047Y-92135476D01*
X151369047Y-92754523D01*
G04 #@! TO.C,C26*
X144942857Y-78857142D02*
X144990476Y-78904761D01*
X145133333Y-78952380D01*
X145228571Y-78952380D01*
X145371428Y-78904761D01*
X145466666Y-78809523D01*
X145514285Y-78714285D01*
X145561904Y-78523809D01*
X145561904Y-78380952D01*
X145514285Y-78190476D01*
X145466666Y-78095238D01*
X145371428Y-78000000D01*
X145228571Y-77952380D01*
X145133333Y-77952380D01*
X144990476Y-78000000D01*
X144942857Y-78047619D01*
X144561904Y-78047619D02*
X144514285Y-78000000D01*
X144419047Y-77952380D01*
X144180952Y-77952380D01*
X144085714Y-78000000D01*
X144038095Y-78047619D01*
X143990476Y-78142857D01*
X143990476Y-78238095D01*
X144038095Y-78380952D01*
X144609523Y-78952380D01*
X143990476Y-78952380D01*
X143133333Y-77952380D02*
X143323809Y-77952380D01*
X143419047Y-78000000D01*
X143466666Y-78047619D01*
X143561904Y-78190476D01*
X143609523Y-78380952D01*
X143609523Y-78761904D01*
X143561904Y-78857142D01*
X143514285Y-78904761D01*
X143419047Y-78952380D01*
X143228571Y-78952380D01*
X143133333Y-78904761D01*
X143085714Y-78857142D01*
X143038095Y-78761904D01*
X143038095Y-78523809D01*
X143085714Y-78428571D01*
X143133333Y-78380952D01*
X143228571Y-78333333D01*
X143419047Y-78333333D01*
X143514285Y-78380952D01*
X143561904Y-78428571D01*
X143609523Y-78523809D01*
G04 #@! TO.C,R4*
X143552380Y-55433333D02*
X143076190Y-55100000D01*
X143552380Y-54861904D02*
X142552380Y-54861904D01*
X142552380Y-55242857D01*
X142600000Y-55338095D01*
X142647619Y-55385714D01*
X142742857Y-55433333D01*
X142885714Y-55433333D01*
X142980952Y-55385714D01*
X143028571Y-55338095D01*
X143076190Y-55242857D01*
X143076190Y-54861904D01*
X142885714Y-56290476D02*
X143552380Y-56290476D01*
X142504761Y-56052380D02*
X143219047Y-55814285D01*
X143219047Y-56433333D01*
G04 #@! TO.C,J5*
X137572889Y-94632380D02*
X137572889Y-95346666D01*
X137620508Y-95489523D01*
X137715746Y-95584761D01*
X137858603Y-95632380D01*
X137953841Y-95632380D01*
X136620508Y-94632380D02*
X137096698Y-94632380D01*
X137144317Y-95108571D01*
X137096698Y-95060952D01*
X137001460Y-95013333D01*
X136763365Y-95013333D01*
X136668127Y-95060952D01*
X136620508Y-95108571D01*
X136572889Y-95203809D01*
X136572889Y-95441904D01*
X136620508Y-95537142D01*
X136668127Y-95584761D01*
X136763365Y-95632380D01*
X137001460Y-95632380D01*
X137096698Y-95584761D01*
X137144317Y-95537142D01*
D11*
G04 #@! TO.C,C2*
X155090000Y-92711252D02*
X155090000Y-91288748D01*
X156910000Y-92711252D02*
X156910000Y-91288748D01*
G04 #@! TO.C,SW1*
X146788375Y-106465362D02*
X153248375Y-106465362D01*
X146788375Y-112895362D02*
X146788375Y-112925362D01*
X153248375Y-106465362D02*
X153248375Y-106495362D01*
X153248375Y-110995362D02*
X153248375Y-108395362D01*
X146788375Y-112925362D02*
X153248375Y-112925362D01*
X146788375Y-110995362D02*
X146788375Y-108395362D01*
X146788375Y-106465362D02*
X146788375Y-106495362D01*
X153248375Y-112925362D02*
X153248375Y-112895362D01*
G04 #@! TO.C,U17*
X145365000Y-82890000D02*
X144890000Y-82890000D01*
X148635000Y-87110000D02*
X149110000Y-87110000D01*
X144890000Y-82890000D02*
X144890000Y-83365000D01*
X145365000Y-87110000D02*
X144890000Y-87110000D01*
X149110000Y-87110000D02*
X149110000Y-86635000D01*
X148635000Y-82890000D02*
X149110000Y-82890000D01*
X144890000Y-87110000D02*
X144890000Y-86635000D01*
G04 #@! TO.C,C9*
X163237387Y-110359116D02*
X161814883Y-110359116D01*
X163237387Y-112179116D02*
X161814883Y-112179116D01*
G04 #@! TO.C,J4*
X161230000Y-94180000D02*
X162560000Y-94180000D01*
X161230000Y-92850000D02*
X161230000Y-94180000D01*
X161230000Y-91580000D02*
X163890000Y-91580000D01*
X161230000Y-91580000D02*
X161230000Y-45800000D01*
X163890000Y-91580000D02*
X163890000Y-45800000D01*
X161230000Y-45800000D02*
X163890000Y-45800000D01*
G04 #@! TO.C,C6*
X152090000Y-87711252D02*
X152090000Y-86288748D01*
X153910000Y-87711252D02*
X153910000Y-86288748D01*
G04 #@! TO.C,R1*
X156910000Y-86272936D02*
X156910000Y-87727064D01*
X155090000Y-86272936D02*
X155090000Y-87727064D01*
G04 #@! TO.C,C25*
X147310000Y-90733748D02*
X147310000Y-92156252D01*
X145490000Y-90733748D02*
X145490000Y-92156252D01*
G04 #@! TO.C,C3*
X159910000Y-92711252D02*
X159910000Y-91288748D01*
X158090000Y-92711252D02*
X158090000Y-91288748D01*
G04 #@! TO.C,C1*
X159910000Y-87711252D02*
X159910000Y-86288748D01*
X158090000Y-87711252D02*
X158090000Y-86288748D01*
G04 #@! TO.C,R14*
X156895396Y-110359116D02*
X158349524Y-110359116D01*
X156895396Y-112179116D02*
X158349524Y-112179116D01*
G04 #@! TO.C,R2*
X151090000Y-70052064D02*
X151090000Y-68597936D01*
X152910000Y-70052064D02*
X152910000Y-68597936D01*
G04 #@! TO.C,J2*
X156270000Y-60330000D02*
X148590000Y-60330000D01*
X156270000Y-57670000D02*
X148590000Y-57670000D01*
X156270000Y-60330000D02*
X156270000Y-57670000D01*
X158870000Y-60330000D02*
X158870000Y-59000000D01*
X148590000Y-60330000D02*
X148590000Y-57670000D01*
X157540000Y-60330000D02*
X158870000Y-60330000D01*
G04 #@! TO.C,R6*
X145272936Y-48910000D02*
X146727064Y-48910000D01*
X145272936Y-47090000D02*
X146727064Y-47090000D01*
G04 #@! TO.C,C8*
X140691026Y-110090000D02*
X139268522Y-110090000D01*
X140691026Y-111910000D02*
X139268522Y-111910000D01*
G04 #@! TO.C,C7*
X142288748Y-58910000D02*
X143711252Y-58910000D01*
X142288748Y-57090000D02*
X143711252Y-57090000D01*
G04 #@! TO.C,Q2*
X155560000Y-51537500D02*
X155560000Y-50887500D01*
X152440000Y-51537500D02*
X152440000Y-50887500D01*
X152440000Y-51537500D02*
X152440000Y-52187500D01*
X155560000Y-51537500D02*
X155560000Y-53212500D01*
G04 #@! TO.C,U2*
X143090000Y-69410000D02*
X143090000Y-68150000D01*
X143090000Y-62590000D02*
X143090000Y-63850000D01*
X149100000Y-62590000D02*
X143090000Y-62590000D01*
X146850000Y-69410000D02*
X143090000Y-69410000D01*
G04 #@! TO.C,R26*
X152110000Y-78492936D02*
X152110000Y-79947064D01*
X150290000Y-78492936D02*
X150290000Y-79947064D01*
G04 #@! TO.C,C5*
X142204166Y-61789812D02*
X143626670Y-61789812D01*
X142204166Y-59969812D02*
X143626670Y-59969812D01*
G04 #@! TO.C,R7*
X153272936Y-47090000D02*
X154727064Y-47090000D01*
X153272936Y-48910000D02*
X154727064Y-48910000D01*
G04 #@! TO.C,R8*
X143910000Y-52727064D02*
X143910000Y-51272936D01*
X142090000Y-52727064D02*
X142090000Y-51272936D01*
G04 #@! TO.C,R25*
X147290000Y-78492936D02*
X147290000Y-79947064D01*
X149110000Y-78492936D02*
X149110000Y-79947064D01*
G04 #@! TO.C,R9*
X156340000Y-52727064D02*
X156340000Y-51272936D01*
X158160000Y-52727064D02*
X158160000Y-51272936D01*
G04 #@! TO.C,Q1*
X147560000Y-51537500D02*
X147560000Y-50887500D01*
X147560000Y-51537500D02*
X147560000Y-53212500D01*
X144440000Y-51537500D02*
X144440000Y-52187500D01*
X144440000Y-51537500D02*
X144440000Y-50887500D01*
G04 #@! TO.C,D1*
X150865000Y-65982500D02*
X150865000Y-62097500D01*
X150865000Y-62097500D02*
X153135000Y-62097500D01*
X153135000Y-62097500D02*
X153135000Y-65982500D01*
G04 #@! TO.C,C4*
X143626670Y-70129812D02*
X142204166Y-70129812D01*
X143626670Y-71949812D02*
X142204166Y-71949812D01*
G04 #@! TO.C,C23*
X140290000Y-85508748D02*
X140290000Y-86931252D01*
X142110000Y-85508748D02*
X142110000Y-86931252D01*
G04 #@! TO.C,R27*
X144310000Y-90717936D02*
X144310000Y-92172064D01*
X142490000Y-90717936D02*
X142490000Y-92172064D01*
G04 #@! TO.C,R5*
X154727064Y-54627500D02*
X153272936Y-54627500D01*
X154727064Y-56447500D02*
X153272936Y-56447500D01*
G04 #@! TO.C,C24*
X148490000Y-92156252D02*
X148490000Y-90733748D01*
X150310000Y-92156252D02*
X150310000Y-90733748D01*
G04 #@! TO.C,C26*
X144911252Y-79310000D02*
X143488748Y-79310000D01*
X144911252Y-81130000D02*
X143488748Y-81130000D01*
G04 #@! TO.C,R4*
X146727064Y-56447500D02*
X145272936Y-56447500D01*
X146727064Y-54627500D02*
X145272936Y-54627500D01*
G04 #@! TO.C,J5*
X135909556Y-92850000D02*
X135909556Y-94180000D01*
X138569556Y-91580000D02*
X138569556Y-45800000D01*
X135909556Y-91580000D02*
X135909556Y-45800000D01*
X135909556Y-91580000D02*
X138569556Y-91580000D01*
X135909556Y-94180000D02*
X137239556Y-94180000D01*
X135909556Y-45800000D02*
X138569556Y-45800000D01*
G04 #@! TD*
M02*
