M48
; DRILL file {KiCad (6.0.1-0)} date Monday, February 14, 2022 at 03:17:10 pm
; FORMAT={3:3/ absolute / metric / suppress leading zeros}
; #@! TF.CreationDate,2022-02-14T15:17:10-08:00
; #@! TF.GenerationSoftware,Kicad,Pcbnew,(6.0.1-0)
; #@! TF.FileFunction,MixedPlating,1,2
FMAT,2
METRIC,TZ
; #@! TA.AperFunction,Plated,PTH,ViaDrill
T1C0.400
; #@! TA.AperFunction,Plated,PTH,ComponentDrill
T2C1.000
; #@! TA.AperFunction,Plated,PTH,ComponentDrill
T3C1.200
%
G90
G05
T1
X134500Y-75150
X134550Y-60100
X134550Y-71300
X134718Y-84050
X135050Y-113500
X135250Y-53500
X135250Y-112750
X135782Y-73750
X138700Y-89200
X138850Y-52300
X139000Y-70000
X139250Y-67550
X139700Y-64950
X139718Y-59300
X139821Y-90729
X139850Y-89200
X139900Y-92000
X140106Y-74300
X140200Y-73350
X140250Y-47250
X140250Y-72500
X140600Y-75857
X140802Y-74698
X141250Y-112750
X142750Y-84000
X142900Y-78500
X142950Y-58050
X143000Y-46500
X143250Y-47750
X143250Y-56400
X143550Y-60900
X143750Y-45750
X143750Y-79100
X143900Y-52250
X144000Y-111000
X144263Y-86962
X144382Y-51580
X144750Y-114250
X145300Y-49350
X145750Y-57000
X145750Y-60750
X146000Y-88250
X146500Y-73850
X146550Y-71900
X147550Y-107500
X147782Y-88250
X148032Y-61782
X148250Y-113500
X148500Y-55500
X148619Y-58947
X148750Y-72500
X149200Y-54950
X149450Y-83150
X149750Y-68500
X149920Y-48080
X150000Y-45750
X150468Y-61782
X150500Y-66000
X150530Y-74050
X151520Y-54980
X151750Y-108750
X151800Y-73500
X153050Y-72968
X153750Y-57300
X154220Y-89970
X154500Y-77750
X154500Y-85500
X154500Y-93500
X154950Y-71750
X155500Y-106500
X155500Y-108750
X156200Y-77700
X156300Y-61800
X156832Y-64850
X157150Y-81450
X157175Y-80144
X157193Y-83964
X157209Y-82701
X157230Y-78900
X157250Y-87797
X157339Y-85278
X157900Y-62900
X158600Y-72950
X158694Y-56207
X159200Y-73518
X159700Y-86998
X159718Y-52350
X159718Y-56750
X159718Y-61782
X160250Y-46500
X160600Y-89250
X160782Y-49782
X160782Y-79750
X160850Y-74050
X160850Y-80600
X160850Y-84400
X161000Y-87800
X161350Y-86750
X162550Y-111250
X162555Y-114195
X163664Y-80840
X164250Y-93000
X164250Y-113000
X164272Y-78850
X164656Y-77750
X164656Y-83800
X164750Y-53500
X164782Y-109500
X165500Y-47250
X165500Y-116500
T2
X137240Y-47130
X137240Y-49670
X137240Y-52210
X137240Y-54750
X137240Y-57290
X137240Y-59830
X137240Y-62370
X137240Y-64910
X137240Y-67450
X137240Y-69990
X137240Y-72530
X137240Y-75070
X137240Y-77610
X137240Y-80150
X137240Y-82690
X137240Y-85230
X137240Y-87770
X137240Y-90310
X137240Y-92850
X137475Y-108000
X140015Y-108000
X142555Y-108000
X149920Y-59000
X152460Y-59000
X155000Y-59000
X157475Y-108000
X157540Y-59000
X160015Y-108000
X162555Y-108000
X162560Y-47130
X162560Y-49670
X162560Y-52210
X162560Y-54750
X162560Y-57290
X162560Y-59830
X162560Y-62370
X162560Y-64910
X162560Y-67450
X162560Y-69990
X162560Y-72530
X162560Y-75070
X162560Y-77610
X162560Y-80150
X162560Y-82690
X162560Y-85230
X162560Y-87770
X162560Y-90310
X162560Y-92850
T3
X137750Y-116656
X141250Y-116656
X144750Y-116656
X148250Y-116656
X151750Y-116656
X155250Y-116656
X158750Y-116656
X162250Y-116656
T0
M30
