G04 #@! TF.GenerationSoftware,KiCad,Pcbnew,(6.0.1-0)*
G04 #@! TF.CreationDate,2022-02-14T15:17:06-08:00*
G04 #@! TF.ProjectId,lamp,6c616d70-2e6b-4696-9361-645f70636258,rev?*
G04 #@! TF.SameCoordinates,Original*
G04 #@! TF.FileFunction,Soldermask,Top*
G04 #@! TF.FilePolarity,Negative*
%FSLAX46Y46*%
G04 Gerber Fmt 4.6, Leading zero omitted, Abs format (unit mm)*
G04 Created by KiCad (PCBNEW (6.0.1-0)) date 2022-02-14 15:17:06*
%MOMM*%
%LPD*%
G01*
G04 APERTURE LIST*
%ADD10R,2.400000X2.400000*%
%ADD11C,2.400000*%
%ADD12R,1.300000X1.550000*%
%ADD13R,1.700000X1.700000*%
%ADD14O,1.700000X1.700000*%
%ADD15R,2.000000X0.900000*%
%ADD16R,0.900000X2.000000*%
%ADD17R,5.000000X5.000000*%
G04 APERTURE END LIST*
D10*
G04 #@! TO.C,J8*
X137750000Y-116656150D03*
D11*
X141250000Y-116656150D03*
X144750000Y-116656150D03*
X148250000Y-116656150D03*
X151750000Y-116656150D03*
X155250000Y-116656150D03*
X158750000Y-116656150D03*
X162250000Y-116656150D03*
G04 #@! TD*
D12*
G04 #@! TO.C,SW3*
X146250000Y-54980000D03*
X146250000Y-47020000D03*
X141750000Y-54980000D03*
X141750000Y-47020000D03*
G04 #@! TD*
G04 #@! TO.C,SW4*
X158250000Y-54980000D03*
X158250000Y-47020000D03*
X153750000Y-54980000D03*
X153750000Y-47020000D03*
G04 #@! TD*
D13*
G04 #@! TO.C,J3*
X137475000Y-108000000D03*
D14*
X140015000Y-108000000D03*
X142555000Y-108000000D03*
G04 #@! TD*
D13*
G04 #@! TO.C,J1*
X157475000Y-108000000D03*
D14*
X160015000Y-108000000D03*
X162555000Y-108000000D03*
G04 #@! TD*
D15*
G04 #@! TO.C,U1*
X158394908Y-93269356D03*
X158394908Y-91999356D03*
X158394908Y-90729356D03*
X158394908Y-89459356D03*
X158394908Y-88189356D03*
X158394908Y-86919356D03*
X158394908Y-85649356D03*
X158394908Y-84379356D03*
X158394908Y-83109356D03*
X158394908Y-81839356D03*
X158394908Y-80569356D03*
X158394908Y-79299356D03*
X158394908Y-78029356D03*
X158394908Y-76759356D03*
D16*
X155609908Y-75759356D03*
X154339908Y-75759356D03*
X153069908Y-75759356D03*
X151799908Y-75759356D03*
X150529908Y-75759356D03*
X149259908Y-75759356D03*
X147989908Y-75759356D03*
X146719908Y-75759356D03*
X145449908Y-75759356D03*
X144179908Y-75759356D03*
D15*
X141394908Y-76759356D03*
X141394908Y-78029356D03*
X141394908Y-79299356D03*
X141394908Y-80569356D03*
X141394908Y-81839356D03*
X141394908Y-83109356D03*
X141394908Y-84379356D03*
X141394908Y-85649356D03*
X141394908Y-86919356D03*
X141394908Y-88189356D03*
X141394908Y-89459356D03*
X141394908Y-90729356D03*
X141394908Y-91999356D03*
X141394908Y-93269356D03*
D17*
X150894908Y-85769356D03*
G04 #@! TD*
D13*
G04 #@! TO.C,J4*
X162560000Y-92850000D03*
D14*
X162560000Y-90310000D03*
X162560000Y-87770000D03*
X162560000Y-85230000D03*
X162560000Y-82690000D03*
X162560000Y-80150000D03*
X162560000Y-77610000D03*
X162560000Y-75070000D03*
X162560000Y-72530000D03*
X162560000Y-69990000D03*
X162560000Y-67450000D03*
X162560000Y-64910000D03*
X162560000Y-62370000D03*
X162560000Y-59830000D03*
X162560000Y-57290000D03*
X162560000Y-54750000D03*
X162560000Y-52210000D03*
X162560000Y-49670000D03*
X162560000Y-47130000D03*
G04 #@! TD*
D13*
G04 #@! TO.C,J2*
X157540000Y-59000000D03*
D14*
X155000000Y-59000000D03*
X152460000Y-59000000D03*
X149920000Y-59000000D03*
G04 #@! TD*
D13*
G04 #@! TO.C,J5*
X137239556Y-92850000D03*
D14*
X137239556Y-90310000D03*
X137239556Y-87770000D03*
X137239556Y-85230000D03*
X137239556Y-82690000D03*
X137239556Y-80150000D03*
X137239556Y-77610000D03*
X137239556Y-75070000D03*
X137239556Y-72530000D03*
X137239556Y-69990000D03*
X137239556Y-67450000D03*
X137239556Y-64910000D03*
X137239556Y-62370000D03*
X137239556Y-59830000D03*
X137239556Y-57290000D03*
X137239556Y-54750000D03*
X137239556Y-52210000D03*
X137239556Y-49670000D03*
X137239556Y-47130000D03*
G04 #@! TD*
M02*
