<svg xmlns="http://www.w3.org/2000/svg" viewBox="0 0 252.97 477.9" fill="white"><g id="Layer_2" data-name="Layer 2"><g id="Layer_1_copy" data-name="Layer 1 copy"><path d="M95.37,239.44c22.25,16.32,44.74,16.36,67.88,3a26.49,26.49,0,0,1,2.71,1.87,114.65,114.65,0,0,1,13.23,13.84,70.21,70.21,0,0,1,14.94,35.3,152.69,152.69,0,0,1,.1,40.63,101.92,101.92,0,0,1-11.37,35.39,98.06,98.06,0,0,1-7.4,11.16,24.35,24.35,0,0,1-10.61,7.95,92.64,92.64,0,0,1-45.51,6.65c-11-1.16-21.07-5.15-30.42-10.92-6.84-4.22-11.68-10.34-15.42-17.36a82.79,82.79,0,0,1-7.63-21.63,147.4,147.4,0,0,1-3.38-33.78,92.07,92.07,0,0,1,5.42-29.08A114.14,114.14,0,0,1,92.42,242.2C93.27,241.29,94.24,240.49,95.37,239.44Z"/><path d="M135.16,42.22c.15,5.18.26,14,.67,22.75a142,142,0,0,0,3.32,22.75q6.09,28.61,12.45,57.14c1.65,7.37,2.92,14.76,2.27,22.32a64.67,64.67,0,0,1-1.65,10.38c-1.49,5.89-5.45,9.7-11.19,11.49a36.2,36.2,0,0,1-19.87.85,18.47,18.47,0,0,1-13-11.07,31.69,31.69,0,0,1-2.6-16.39c1.65-14,3.87-27.83,8.62-41.2a77.76,77.76,0,0,0,3.14-14.49,372.73,372.73,0,0,0,4.22-44.37c.15-5,.44-9.9.6-14.85.28-8.81-.62-17.56-1.21-26.33-.24-3.51-.45-7-.6-10.53a20.43,20.43,0,0,1,.15-3.83c.59-4,3.09-6.48,6.87-6.8a7.53,7.53,0,0,1,8.41,5.58,18.57,18.57,0,0,1,.67,6.64C136,21,135.66,29.82,135.16,42.22Z"/><path d="M112.77,27.83c-.19,19.09-3,37.87-7.2,56.47a79.84,79.84,0,0,1-5.7,16.26c-1.89,4-3.86,8.07-5.76,12.12q-2.55,5.43-5,10.88a68.08,68.08,0,0,0-6.2,27.38c-.1,6.87-.43,13.75-.81,20.61a28.25,28.25,0,0,1-1.18,6.56,10.26,10.26,0,0,1-5.14,6.09c-4.69,2.5-9.62,3.35-14.8,1.68a15.64,15.64,0,0,1-10.49-10.36,31.37,31.37,0,0,1-.77-17,166.67,166.67,0,0,1,9.41-29.16,64.18,64.18,0,0,1,8.19-13.5q5.31-7.11,10.79-14.09a57.58,57.58,0,0,0,10.4-19.81c2.14-7.37,4.54-14.66,6-22.21a124,124,0,0,0,1.63-28.66c-.22-4.79-.59-9.58-.64-14.38a24.79,24.79,0,0,1,.84-7.08,8.12,8.12,0,0,1,10.32-5.3A6.9,6.9,0,0,1,110.77,8a18.67,18.67,0,0,1,2,7.84C112.82,19.84,112.77,23.83,112.77,27.83Z"/><path d="M160,35.3c.2,5.75.42,11.5.58,17.25A31.27,31.27,0,0,0,162.2,62q3.69,10.65,7.56,21.22a47.79,47.79,0,0,0,5.78,10.47q6.63,9.69,13.16,19.46A86.64,86.64,0,0,1,196.25,127a79.68,79.68,0,0,0,4.27,8.58c4.6,7.88,7,16.45,8.12,25.4a90.11,90.11,0,0,1,1,11.92,13.47,13.47,0,0,1-13.45,13.38c-8.57.15-14.77-4.29-17.05-12.55a87.82,87.82,0,0,1-2-10.83c-.51-3.64-.77-7.31-1.1-11a74,74,0,0,0-3.28-15c-3-9.78-6.17-19.5-9.36-29.22-.85-2.57-2-5-3.09-7.53-1.28-2.93-2.57-5.86-4-8.72-5.23-10.43-7.91-21.57-9.05-33.11-.91-9.22-1.77-18.46-2.46-27.7-.36-4.93-.44-9.9-.38-14.85a23,23,0,0,1,1.08-7.06,6.68,6.68,0,0,1,11.28-2.4,10.89,10.89,0,0,1,3.12,7.35c.19,4.31.19,8.62.24,12.94,0,2.87,0,5.75,0,8.63Z"/><path d="M.05,162.68c.88-13.51,6.35-25.26,14.31-35.9A96.23,96.23,0,0,1,25.1,115.21,123.36,123.36,0,0,0,41,96.73,168.64,168.64,0,0,1,51.26,82.87c7.4-8.58,11.7-18.58,14.5-29.36a125.37,125.37,0,0,0,3.83-27.94,21.28,21.28,0,0,1,1.11-7,11.13,11.13,0,0,1,3.53-5,6.56,6.56,0,0,1,9.38,1.11A17.77,17.77,0,0,1,86.76,22a37.52,37.52,0,0,1,.82,11.43A133.23,133.23,0,0,1,77.7,73.27a34.14,34.14,0,0,1-3.94,6.54C71.08,83.58,68.14,87.18,65.5,91s-5.2,8-7.87,12-5.24,7.63-7.93,11.39-5.53,7.43-8.2,11.21a41.22,41.22,0,0,0-5.4,11.17,151.92,151.92,0,0,0-6.21,24.57,44.64,44.64,0,0,1-3.53,10.88,23.63,23.63,0,0,1-4.27,6.29c-5.81,6.36-17.65,4.62-20.76-4.45A30.86,30.86,0,0,1,.05,162.68Z"/><path d="M222.49,153.24c.54-9.09-2.36-17.34-6.33-25.29a177.61,177.61,0,0,0-22.55-35A102.12,102.12,0,0,1,180.42,73c-1.72-3.43-3.51-6.83-5.19-10.27a50.7,50.7,0,0,1-5.07-18.37c-.56-7-1.2-14-1.75-21a22.07,22.07,0,0,1,.07-4.3,8.82,8.82,0,0,1,11.27-7.33,5.36,5.36,0,0,1,3.46,3.12,25.3,25.3,0,0,1,1.67,5.46c1,6,1.84,12,2.68,18a105.86,105.86,0,0,0,4.74,21,48.21,48.21,0,0,0,6.44,12.23,186.5,186.5,0,0,0,17,20.1A136.24,136.24,0,0,1,243,133.1c3,7.05,5.47,14.33,8.18,21.5a27.2,27.2,0,0,1,.62,16.5,19.71,19.71,0,0,1-1.72,4.45,11,11,0,0,1-8.24,5.95,24.15,24.15,0,0,1-5.23.36c-5.33-.26-9-3-10.92-8a45,45,0,0,1-3.19-17.32C222.51,155.47,222.49,154.35,222.49,153.24Z"/><path d="M199.53,471.68c-2-4.81-2.65-9.55-6-13l-3.89-4c.76,4.17,1.53,7.46,1.92,10.8A13.29,13.29,0,0,1,189,475.69c-1.45-2-1.57-4.24-2.07-6.3a21,21,0,0,0-7-11.15,5.93,5.93,0,0,0-1.2-.62c-1,.62-.5,1.44-.38,2.12a28.86,28.86,0,0,1-.41,12.81c-.4,1.51-.68,3.15-2.5,4.12-.44-1.24-.83-2.4-1.26-3.55-1.37-3.57-2.66-7.19-4.19-10.69a28.78,28.78,0,0,0-3.15-5.35c-3-4.09-7.13-5.74-12.14-5.25-4.67.46-7.72,3-8.54,7.67-.41,2.3-.07,4.73-.07,7.36-2,0-3.05-1.11-4.06-2.27a6,6,0,0,1-1.54-4.41c.2-4,.9-7.94,3.32-11.33.83-1.17,1.78-2.26,2.52-3.49a36.57,36.57,0,0,0,2.7-5.05,10.76,10.76,0,0,0-1-10.49,69.15,69.15,0,0,1-8-17.87,34.41,34.41,0,0,1-1.35-6.06c-.53-5,2.84-7.93,7.7-7a4.21,4.21,0,0,1,3.5,2.88,40.65,40.65,0,0,1,1.19,4.62c.83,3.9,1.59,7.82,2.42,11.72,1.52,7.15,6,12.3,11.7,16.36a27.57,27.57,0,0,0,13.72,5.23c1.43.11,2.85.4,4.27.59,9.31,1.23,14.6,7.15,17.86,15.37a10.24,10.24,0,0,1,.67,3.75A35.52,35.52,0,0,1,199.53,471.68Z"/><path d="M79.87,477.9c-4-6.66-3.11-13.06-2.54-19.86a10.34,10.34,0,0,0-2.24,1.14,20.85,20.85,0,0,0-6.53,10.91c-.4,1.84-1,3.66-1.39,5.31-1.11.41-1.35-.23-1.64-.77-1.92-3.56-2-7.37-1.33-11.2.46-2.48,1.27-4.9,1.94-7.4-1-.67-1.37.31-1.84.76a22.15,22.15,0,0,0-6.62,10.9c-.28,1.18-.77,2.3-1.29,3.82-.55-.72-1-1-1-1.41-.48-2.5-1-5-1.3-7.54a16.4,16.4,0,0,1,3.32-12.16c4.23-5.86,9.66-9.55,17.15-10,9.67-.52,17.29-5.06,23.3-12.53a17.82,17.82,0,0,0,3.47-6.77c1-4,1.92-8.06,2.82-12.11.42-1.87.62-3.79,1.15-5.62,1-3.44,3.32-4.73,7-4.14a5.93,5.93,0,0,1,4.69,5.86,25.37,25.37,0,0,1-.94,5.65,64.46,64.46,0,0,1-8.08,18.85c-3,4.59-2.76,9-.32,13.53a31.66,31.66,0,0,0,3.18,4.77,21.16,21.16,0,0,1,4.27,12,6.73,6.73,0,0,1-1.1,4.56,5.79,5.79,0,0,1-4,2.81,15.17,15.17,0,0,1-.29-1.89c0-1.11.14-2.24.08-3.35-.38-6.65-5.43-10.76-12.05-9.81A12.18,12.18,0,0,0,89.19,457a36.23,36.23,0,0,0-3.91,6.55c-1.6,3.64-2.85,7.44-4.25,11.18C80.76,475.47,80.5,476.19,79.87,477.9Z"/><path d="M157.71,196.07a37.84,37.84,0,0,1,2.51,3.07,75.38,75.38,0,0,1,8.7,19.09,26.06,26.06,0,0,1,.7,3.27c.79,4.87-1,8.43-5.42,10.58a16.79,16.79,0,0,1-3.61,1.19,7.51,7.51,0,0,1-8.06-2.88c-3.57-4.43-4.8-9.41-2.92-14.8,2-5.71,4.35-11.3,6.58-16.93A23.88,23.88,0,0,1,157.71,196.07Z"/><path d="M41.05,191.47a5.7,5.7,0,0,1,1,.85,42.15,42.15,0,0,1,7.74,15.81,34.71,34.71,0,0,1,.9,8.06c-.08,6.95-6,11.37-12.76,9.83a7.88,7.88,0,0,1-5.55-4.87,19.76,19.76,0,0,1-.77-15,44.39,44.39,0,0,1,8.48-14.34C40.28,191.65,40.67,191.62,41.05,191.47Z"/><path d="M69.81,193.65C74.58,199,79.58,210.49,80,216.94a12.34,12.34,0,0,1-3.36,9.63,9,9,0,0,1-13.19.35A11.18,11.18,0,0,1,59.74,217,29.75,29.75,0,0,1,61,211.45a89.34,89.34,0,0,1,7.82-16.87A4.81,4.81,0,0,1,69.81,193.65Z"/><path d="M128.77,199.62a16.7,16.7,0,0,1,1.44,1.8A89.47,89.47,0,0,1,139,221.48a16.38,16.38,0,0,1,.5,7.09,6.81,6.81,0,0,1-4.92,5.86,14.8,14.8,0,0,1-7.55.41,8.68,8.68,0,0,1-6.42-5.23,15.87,15.87,0,0,1-.95-11.65,94.63,94.63,0,0,1,8.17-17.74C128,200,128.35,199.89,128.77,199.62Z"/><path d="M11.49,188.2a2.7,2.7,0,0,1,.82.45c4.67,5.56,8.28,11.71,9.63,18.93a20.17,20.17,0,0,1,.18,6.62,8.8,8.8,0,0,1-7.58,7.55c-4.54.83-7.86-.59-10.24-4.34a14.32,14.32,0,0,1-2-8.69C2.61,202.68,7,192.92,11.49,188.2Z"/><path d="M243.75,186.93c4.55,7.09,7.56,13.89,8.95,21.32,1,5.29-.84,9.76-4.81,13.29-3.38,3-7.07,2.88-10.16-.46a15.62,15.62,0,0,1-3.71-16C236,198.68,239.7,193.08,243.75,186.93Z"/><path d="M99.55,196.13c3.75,6.39,6.51,12.28,8.06,18.65a16,16,0,0,1-.64,10.31,15.56,15.56,0,0,1-1.86,3.31c-2,2.53-4.44,4.1-7.84,3.43s-6.31-2.38-7.29-6c-1.07-4-1.66-8.08-.43-12.23C91.43,207.19,95,201.83,99.55,196.13Z"/><path d="M188.12,193.48a34.4,34.4,0,0,1,9.87,23c.3,5.57-2.57,9.15-7.85,10.36a8.36,8.36,0,0,1-8.29-2.45,12.58,12.58,0,0,1-3.86-9,20.74,20.74,0,0,1,.67-5.18A41.48,41.48,0,0,1,188.12,193.48Z"/><path d="M216,191a21.21,21.21,0,0,1,1.44,2,91.19,91.19,0,0,1,8.1,19.35,23.33,23.33,0,0,1,.89,5.17c.21,4.37-2.23,7.11-5.89,9a8.47,8.47,0,0,1-9.82-.86,7.77,7.77,0,0,1-3.35-6.07,24.39,24.39,0,0,1,.47-6.16A145.47,145.47,0,0,1,215,192.2C215.11,191.82,215.53,191.54,216,191Z"/></g></g></svg>